<svg width="821" height="269" viewBox="0 0 821 269" fill="none" xmlns="http://www.w3.org/2000/svg">
<rect x="10" y="10" width="801" height="249" fill="#FAF7F3"/>
<g filter="url(#filter0_dd_1645_201)">
<rect x="60" y="60" width="701" height="149" rx="16" fill="white"/>
</g>
<path d="M110.213 90.251C110.213 91.0137 110.072 91.6886 109.789 92.2759C109.506 92.8631 109.103 93.3161 108.581 93.6348C108.061 93.9499 107.469 94.1074 106.803 94.1074C106.137 94.1074 105.546 93.9552 105.03 93.6509C104.515 93.3429 104.112 92.9043 103.822 92.335C103.535 91.7656 103.385 91.1121 103.371 90.3745V89.9341C103.371 89.1678 103.51 88.4928 103.79 87.9092C104.072 87.3219 104.475 86.869 104.998 86.5503C105.524 86.2316 106.122 86.0723 106.792 86.0723C107.454 86.0723 108.045 86.2298 108.564 86.5449C109.084 86.86 109.486 87.3094 109.773 87.8931C110.063 88.4731 110.21 89.1392 110.213 89.8911V90.251ZM108.296 89.9233C108.296 89.1463 108.165 88.5573 107.904 88.1562C107.646 87.7516 107.275 87.5493 106.792 87.5493C105.847 87.5493 105.347 88.2583 105.293 89.6763L105.288 90.251C105.288 91.0173 105.415 91.6063 105.669 92.0181C105.924 92.4299 106.301 92.6357 106.803 92.6357C107.279 92.6357 107.646 92.4334 107.904 92.0288C108.162 91.6242 108.292 91.0423 108.296 90.2832V89.9233ZM117.319 86.1797V91.2983C117.319 91.8784 117.196 92.3815 116.949 92.8076C116.702 93.2301 116.347 93.5524 115.885 93.7744C115.423 93.9964 114.877 94.1074 114.247 94.1074C113.295 94.1074 112.544 93.8604 111.997 93.3662C111.449 92.8721 111.169 92.1953 111.159 91.3359V86.1797H113.055V91.3735C113.076 92.2293 113.474 92.6572 114.247 92.6572C114.637 92.6572 114.933 92.5498 115.133 92.335C115.334 92.1201 115.434 91.771 115.434 91.2876V86.1797H117.319ZM121.407 91.2393H120.386V94H118.501V86.1797H121.579C122.506 86.1797 123.231 86.3856 123.754 86.7974C124.277 87.2091 124.538 87.791 124.538 88.543C124.538 89.0872 124.427 89.5384 124.205 89.8965C123.987 90.2546 123.643 90.5446 123.174 90.7666L124.807 93.9194V94H122.787L121.407 91.2393ZM120.386 89.7837H121.579C121.937 89.7837 122.205 89.6906 122.384 89.5044C122.567 89.3146 122.658 89.0514 122.658 88.7148C122.658 88.3783 122.567 88.1151 122.384 87.9253C122.202 87.7319 121.933 87.6353 121.579 87.6353H120.386V89.7837ZM130.892 86.1797L132.638 91.6206L134.378 86.1797H136.859V94H134.969V92.1738L135.151 88.4355L133.261 94H132.015L130.119 88.4302L130.301 92.1738V94H128.416V86.1797H130.892ZM144.685 90.251C144.685 91.0137 144.544 91.6886 144.261 92.2759C143.978 92.8631 143.575 93.3161 143.052 93.6348C142.533 93.9499 141.94 94.1074 141.274 94.1074C140.608 94.1074 140.018 93.9552 139.502 93.6509C138.986 93.3429 138.583 92.9043 138.293 92.335C138.007 91.7656 137.857 91.1121 137.842 90.3745V89.9341C137.842 89.1678 137.982 88.4928 138.261 87.9092C138.544 87.3219 138.947 86.869 139.47 86.5503C139.996 86.2316 140.594 86.0723 141.264 86.0723C141.926 86.0723 142.517 86.2298 143.036 86.5449C143.555 86.86 143.958 87.3094 144.245 87.8931C144.535 88.4731 144.681 89.1392 144.685 89.8911V90.251ZM142.768 89.9233C142.768 89.1463 142.637 88.5573 142.375 88.1562C142.118 87.7516 141.747 87.5493 141.264 87.5493C140.318 87.5493 139.819 88.2583 139.765 89.6763L139.76 90.251C139.76 91.0173 139.887 91.6063 140.141 92.0181C140.395 92.4299 140.773 92.6357 141.274 92.6357C141.751 92.6357 142.118 92.4334 142.375 92.0288C142.633 91.6242 142.764 91.0423 142.768 90.2832V89.9233ZM151.334 87.6353H148.987V94H147.102V87.6353H144.798V86.1797H151.334V87.6353ZM158.36 87.6353H156.013V94H154.127V87.6353H151.823V86.1797H158.36V87.6353ZM165.632 90.251C165.632 91.0137 165.491 91.6886 165.208 92.2759C164.925 92.8631 164.522 93.3161 164 93.6348C163.48 93.9499 162.888 94.1074 162.222 94.1074C161.556 94.1074 160.965 93.9552 160.449 93.6509C159.934 93.3429 159.531 92.9043 159.241 92.335C158.954 91.7656 158.804 91.1121 158.79 90.3745V89.9341C158.79 89.1678 158.929 88.4928 159.208 87.9092C159.491 87.3219 159.894 86.869 160.417 86.5503C160.943 86.2316 161.541 86.0723 162.211 86.0723C162.873 86.0723 163.464 86.2298 163.983 86.5449C164.503 86.86 164.905 87.3094 165.192 87.8931C165.482 88.4731 165.629 89.1392 165.632 89.8911V90.251ZM163.715 89.9233C163.715 89.1463 163.584 88.5573 163.323 88.1562C163.065 87.7516 162.694 87.5493 162.211 87.5493C161.266 87.5493 160.766 88.2583 160.712 89.6763L160.707 90.251C160.707 91.0173 160.834 91.6063 161.088 92.0181C161.343 92.4299 161.72 92.6357 162.222 92.6357C162.698 92.6357 163.065 92.4334 163.323 92.0288C163.581 91.6242 163.711 91.0423 163.715 90.2832V89.9233Z" fill="#0E1318"/>
<path d="M110.09 172.668L105.432 170.324C106.838 167.707 107.561 164.787 107.6 161.564V155.119H115.158L115.129 161.184C115.129 163.078 114.66 165.1 113.723 167.248C112.785 169.416 111.574 171.223 110.09 172.668ZM120.373 172.668L115.686 170.324C117.287 167.336 118.117 164.436 118.176 161.623V155.119H125.764L125.734 161.359C125.695 163.234 125.168 165.227 124.152 167.336C123.137 169.445 121.877 171.223 120.373 172.668ZM164.934 147.092L169.826 120.344H180.021L170.969 163H160.305L154.592 138.684L148.996 163H138.361L129.279 120.344H139.504L144.396 147.092L150.256 120.344H158.986L164.934 147.092ZM181.398 146.857C181.398 143.693 182.014 140.881 183.244 138.42C184.475 135.939 186.242 134.035 188.547 132.707C190.852 131.379 193.557 130.715 196.662 130.715C201.408 130.715 205.148 132.189 207.883 135.139C210.617 138.068 211.984 142.062 211.984 147.121V147.473C211.984 152.414 210.607 156.34 207.854 159.25C205.119 162.141 201.408 163.586 196.721 163.586C192.209 163.586 188.586 162.238 185.852 159.543C183.117 156.828 181.643 153.156 181.428 148.527L181.398 146.857ZM191.271 147.473C191.271 150.402 191.73 152.551 192.648 153.918C193.566 155.285 194.924 155.969 196.721 155.969C200.236 155.969 202.033 153.264 202.111 147.854V146.857C202.111 141.174 200.295 138.332 196.662 138.332C193.361 138.332 191.574 140.783 191.301 145.686L191.271 147.473ZM235.51 140.236L232.258 140.002C229.152 140.002 227.16 140.979 226.281 142.932V163H216.408V131.301H225.666L225.988 135.373C227.648 132.268 229.963 130.715 232.932 130.715C233.986 130.715 234.904 130.832 235.686 131.066L235.51 140.236ZM251.799 151.193L249.016 153.977V163H239.143V117.971H249.016V141.877L250.012 140.559L257.453 131.301H269.289L258.186 144.338L270.021 163H258.713L251.799 151.193ZM316.252 147.414C316.252 152.609 315.178 156.604 313.029 159.396C310.881 162.189 307.854 163.586 303.947 163.586C300.725 163.586 298.127 162.307 296.154 159.748L295.744 163H286.896V118H296.77V133.85C298.605 131.76 300.979 130.715 303.889 130.715C307.834 130.715 310.881 132.131 313.029 134.963C315.178 137.795 316.252 141.779 316.252 146.916V147.414ZM306.35 146.799C306.35 143.752 305.939 141.584 305.119 140.295C304.318 138.986 303.078 138.332 301.398 138.332C299.172 138.332 297.629 139.182 296.77 140.881V153.479C297.609 155.158 299.172 155.998 301.457 155.998C303.781 155.998 305.256 154.865 305.881 152.6C306.193 151.486 306.35 149.553 306.35 146.799ZM335.969 163.586C331.105 163.586 327.17 162.141 324.162 159.25C321.154 156.34 319.65 152.561 319.65 147.912V147.092C319.65 143.85 320.246 140.988 321.438 138.508C322.648 136.027 324.406 134.113 326.711 132.766C329.016 131.398 331.75 130.715 334.914 130.715C339.367 130.715 342.883 132.102 345.461 134.875C348.039 137.629 349.328 141.477 349.328 146.418V150.256H329.699C330.051 152.033 330.822 153.43 332.014 154.445C333.205 155.461 334.748 155.969 336.643 155.969C339.768 155.969 342.209 154.875 343.967 152.688L348.479 158.02C347.248 159.719 345.5 161.076 343.234 162.092C340.988 163.088 338.566 163.586 335.969 163.586ZM334.855 138.332C331.965 138.332 330.246 140.246 329.699 144.074H339.66V143.312C339.699 141.73 339.299 140.51 338.459 139.65C337.619 138.771 336.418 138.332 334.855 138.332ZM364.826 123.42V131.301H370.041V138.156H364.826V152.658C364.826 153.85 365.041 154.68 365.471 155.148C365.9 155.617 366.75 155.852 368.02 155.852C368.996 155.852 369.816 155.793 370.48 155.676V162.736C368.703 163.303 366.848 163.586 364.914 163.586C361.516 163.586 359.006 162.785 357.385 161.184C355.764 159.582 354.953 157.15 354.953 153.889V138.156H350.91V131.301H354.953V123.42H364.826ZM385.451 123.42V131.301H390.666V138.156H385.451V152.658C385.451 153.85 385.666 154.68 386.096 155.148C386.525 155.617 387.375 155.852 388.645 155.852C389.621 155.852 390.441 155.793 391.105 155.676V162.736C389.328 163.303 387.473 163.586 385.539 163.586C382.141 163.586 379.631 162.785 378.01 161.184C376.389 159.582 375.578 157.15 375.578 153.889V138.156H371.535V131.301H375.578V123.42H385.451ZM409.914 163.586C405.051 163.586 401.115 162.141 398.107 159.25C395.1 156.34 393.596 152.561 393.596 147.912V147.092C393.596 143.85 394.191 140.988 395.383 138.508C396.594 136.027 398.352 134.113 400.656 132.766C402.961 131.398 405.695 130.715 408.859 130.715C413.312 130.715 416.828 132.102 419.406 134.875C421.984 137.629 423.273 141.477 423.273 146.418V150.256H403.645C403.996 152.033 404.768 153.43 405.959 154.445C407.15 155.461 408.693 155.969 410.588 155.969C413.713 155.969 416.154 154.875 417.912 152.688L422.424 158.02C421.193 159.719 419.445 161.076 417.18 162.092C414.934 163.088 412.512 163.586 409.914 163.586ZM408.801 138.332C405.91 138.332 404.191 140.246 403.645 144.074H413.605V143.312C413.645 141.73 413.244 140.51 412.404 139.65C411.564 138.771 410.363 138.332 408.801 138.332ZM446.447 140.236L443.195 140.002C440.09 140.002 438.098 140.979 437.219 142.932V163H427.346V131.301H436.604L436.926 135.373C438.586 132.268 440.9 130.715 443.869 130.715C444.924 130.715 445.842 130.832 446.623 131.066L446.447 140.236ZM476.447 123.42V131.301H481.662V138.156H476.447V152.658C476.447 153.85 476.662 154.68 477.092 155.148C477.521 155.617 478.371 155.852 479.641 155.852C480.617 155.852 481.438 155.793 482.102 155.676V162.736C480.324 163.303 478.469 163.586 476.535 163.586C473.137 163.586 470.627 162.785 469.006 161.184C467.385 159.582 466.574 157.15 466.574 153.889V138.156H462.531V131.301H466.574V123.42H476.447ZM483.449 146.857C483.449 143.693 484.064 140.881 485.295 138.42C486.525 135.939 488.293 134.035 490.598 132.707C492.902 131.379 495.607 130.715 498.713 130.715C503.459 130.715 507.199 132.189 509.934 135.139C512.668 138.068 514.035 142.062 514.035 147.121V147.473C514.035 152.414 512.658 156.34 509.904 159.25C507.17 162.141 503.459 163.586 498.771 163.586C494.26 163.586 490.637 162.238 487.902 159.543C485.168 156.828 483.693 153.156 483.479 148.527L483.449 146.857ZM493.322 147.473C493.322 150.402 493.781 152.551 494.699 153.918C495.617 155.285 496.975 155.969 498.771 155.969C502.287 155.969 504.084 153.264 504.162 147.854V146.857C504.162 141.174 502.346 138.332 498.713 138.332C495.412 138.332 493.625 140.783 493.352 145.686L493.322 147.473ZM517.229 146.916C517.229 143.713 517.756 140.881 518.811 138.42C519.865 135.959 521.379 134.064 523.352 132.736C525.324 131.389 527.619 130.715 530.236 130.715C533.537 130.715 536.115 131.828 537.971 134.055L538.322 131.301H547.287V161.799C547.287 164.592 546.633 167.014 545.324 169.064C544.035 171.135 542.16 172.717 539.699 173.811C537.238 174.924 534.387 175.48 531.145 175.48C528.82 175.48 526.564 175.041 524.377 174.162C522.209 173.283 520.549 172.141 519.396 170.734L523.527 164.934C525.363 167.102 527.785 168.186 530.793 168.186C535.168 168.186 537.355 165.939 537.355 161.447V160.451C535.461 162.541 533.068 163.586 530.178 163.586C526.311 163.586 523.186 162.111 520.803 159.162C518.42 156.193 517.229 152.229 517.229 147.268V146.916ZM527.131 147.531C527.131 150.129 527.619 152.189 528.596 153.713C529.572 155.217 530.939 155.969 532.697 155.969C534.826 155.969 536.379 155.256 537.355 153.83V140.5C536.398 139.055 534.865 138.332 532.756 138.332C530.998 138.332 529.621 139.123 528.625 140.705C527.629 142.268 527.131 144.543 527.131 147.531ZM568.234 163.586C563.371 163.586 559.436 162.141 556.428 159.25C553.42 156.34 551.916 152.561 551.916 147.912V147.092C551.916 143.85 552.512 140.988 553.703 138.508C554.914 136.027 556.672 134.113 558.977 132.766C561.281 131.398 564.016 130.715 567.18 130.715C571.633 130.715 575.148 132.102 577.727 134.875C580.305 137.629 581.594 141.477 581.594 146.418V150.256H561.965C562.316 152.033 563.088 153.43 564.279 154.445C565.471 155.461 567.014 155.969 568.908 155.969C572.033 155.969 574.475 154.875 576.232 152.688L580.744 158.02C579.514 159.719 577.766 161.076 575.5 162.092C573.254 163.088 570.832 163.586 568.234 163.586ZM567.121 138.332C564.23 138.332 562.512 140.246 561.965 144.074H571.926V143.312C571.965 141.73 571.564 140.51 570.725 139.65C569.885 138.771 568.684 138.332 567.121 138.332ZM597.092 123.42V131.301H602.307V138.156H597.092V152.658C597.092 153.85 597.307 154.68 597.736 155.148C598.166 155.617 599.016 155.852 600.285 155.852C601.262 155.852 602.082 155.793 602.746 155.676V162.736C600.969 163.303 599.113 163.586 597.18 163.586C593.781 163.586 591.271 162.785 589.65 161.184C588.029 159.582 587.219 157.15 587.219 153.889V138.156H583.176V131.301H587.219V123.42H597.092ZM615.871 134.699C617.98 132.043 620.676 130.715 623.957 130.715C627.453 130.715 630.09 131.75 631.867 133.82C633.645 135.891 634.553 138.947 634.592 142.99V163H624.689V143.225C624.689 141.545 624.348 140.314 623.664 139.533C622.98 138.732 621.818 138.332 620.178 138.332C618.146 138.332 616.711 138.977 615.871 140.266V163H605.998V118H615.871V134.699ZM655.422 163.586C650.559 163.586 646.623 162.141 643.615 159.25C640.607 156.34 639.104 152.561 639.104 147.912V147.092C639.104 143.85 639.699 140.988 640.891 138.508C642.102 136.027 643.859 134.113 646.164 132.766C648.469 131.398 651.203 130.715 654.367 130.715C658.82 130.715 662.336 132.102 664.914 134.875C667.492 137.629 668.781 141.477 668.781 146.418V150.256H649.152C649.504 152.033 650.275 153.43 651.467 154.445C652.658 155.461 654.201 155.969 656.096 155.969C659.221 155.969 661.662 154.875 663.42 152.688L667.932 158.02C666.701 159.719 664.953 161.076 662.688 162.092C660.441 163.088 658.02 163.586 655.422 163.586ZM654.309 138.332C651.418 138.332 649.699 140.246 649.152 144.074H659.113V143.312C659.152 141.73 658.752 140.51 657.912 139.65C657.072 138.771 655.871 138.332 654.309 138.332ZM691.955 140.236L688.703 140.002C685.598 140.002 683.605 140.979 682.727 142.932V163H672.854V131.301H682.111L682.434 135.373C684.094 132.268 686.408 130.715 689.377 130.715C690.432 130.715 691.35 130.832 692.131 131.066L691.955 140.236ZM701.945 116.828L706.281 119.172C704.68 122.062 703.85 124.768 703.791 127.287V132.473H696.584V127.639C696.604 125.861 697.131 123.957 698.166 121.926C699.201 119.875 700.461 118.176 701.945 116.828ZM712.229 116.828L716.564 119.172C714.963 122.062 714.133 124.768 714.074 127.287V132.473H706.867V127.639C706.887 125.861 707.414 123.957 708.449 121.926C709.484 119.875 710.744 118.176 712.229 116.828Z" fill="#0071BB"/>
<defs>
<filter id="filter0_dd_1645_201" x="0" y="0" width="821" height="269" filterUnits="userSpaceOnUse" color-interpolation-filters="sRGB">
<feFlood flood-opacity="0" result="BackgroundImageFix"/>
<feColorMatrix in="SourceAlpha" type="matrix" values="0 0 0 0 0 0 0 0 0 0 0 0 0 0 0 0 0 0 127 0" result="hardAlpha"/>
<feMorphology radius="8" operator="dilate" in="SourceAlpha" result="effect1_dropShadow_1645_201"/>
<feOffset/>
<feGaussianBlur stdDeviation="12"/>
<feColorMatrix type="matrix" values="0 0 0 0 0.392157 0 0 0 0 0.462745 0 0 0 0 0.521569 0 0 0 0.15 0"/>
<feBlend mode="normal" in2="BackgroundImageFix" result="effect1_dropShadow_1645_201"/>
<feColorMatrix in="SourceAlpha" type="matrix" values="0 0 0 0 0 0 0 0 0 0 0 0 0 0 0 0 0 0 127 0" result="hardAlpha"/>
<feOffset/>
<feGaussianBlur stdDeviation="30"/>
<feColorMatrix type="matrix" values="0 0 0 0 0.392157 0 0 0 0 0.462745 0 0 0 0 0.521569 0 0 0 0.2 0"/>
<feBlend mode="normal" in2="effect1_dropShadow_1645_201" result="effect2_dropShadow_1645_201"/>
<feBlend mode="normal" in="SourceGraphic" in2="effect2_dropShadow_1645_201" result="shape"/>
</filter>
</defs>
</svg>
