<svg width="855" height="319" viewBox="0 0 855 319" fill="none" xmlns="http://www.w3.org/2000/svg">
<rect x="10" y="10" width="835" height="299" fill="white"/>
<g filter="url(#filter0_dd_1415_123)">
<path d="M60 76V243C60 251.837 67.1634 259 76 259H678.959C687.796 259 694.959 251.837 694.959 243V189.664C694.959 180.803 702.162 173.629 711.023 173.664L778.936 173.936C787.797 173.971 795 166.797 795 157.936V76C795 67.1634 787.837 60 779 60H76C67.1634 60 60 67.1634 60 76Z" fill="white"/>
</g>
<path d="M103.369 105.973V101.227C103.369 99.918 103.623 98.5801 104.131 97.2129C104.658 95.8457 105.332 94.5664 106.152 93.375C106.992 92.1641 107.861 91.1484 108.76 90.3281L113.066 92.6719C112.461 93.7852 111.895 95.0156 111.367 96.3633C110.859 97.7109 110.605 99.3418 110.605 101.256V105.973H103.369ZM113.652 105.973V101.227C113.652 99.918 113.906 98.5801 114.414 97.2129C114.941 95.8457 115.615 94.5664 116.436 93.375C117.275 92.1641 118.145 91.1484 119.043 90.3281L123.35 92.6719C122.744 93.7852 122.178 95.0156 121.65 96.3633C121.143 97.7109 120.889 99.3418 120.889 101.256V105.973H113.652ZM138.76 132.633L147.256 93.8438H152.324L155.078 97.1543L146.025 136.5H140.43L138.76 132.633ZM136.504 93.8438L143.682 132.926L141.836 136.5H135.361L126.309 93.8438H136.504ZM159.736 132.721L166.855 93.8438H177.021L167.969 136.5H161.523L159.736 132.721ZM155.986 93.8438L164.688 132.867L162.93 136.5H157.334L148.076 97.0957L150.947 93.8438H155.986ZM195.01 137.086C192.432 137.086 190.127 136.686 188.096 135.885C186.064 135.064 184.346 133.941 182.939 132.516C181.553 131.09 180.488 129.449 179.746 127.594C179.023 125.738 178.662 123.775 178.662 121.705V120.592C178.662 118.268 178.984 116.119 179.629 114.146C180.273 112.154 181.23 110.416 182.5 108.932C183.77 107.447 185.361 106.295 187.275 105.475C189.189 104.635 191.416 104.215 193.955 104.215C196.201 104.215 198.213 104.576 199.99 105.299C201.768 106.021 203.271 107.057 204.502 108.404C205.752 109.752 206.699 111.383 207.344 113.297C208.008 115.211 208.34 117.359 208.34 119.742V123.756H182.441V117.574H198.701V116.812C198.721 115.758 198.535 114.859 198.145 114.117C197.773 113.375 197.227 112.809 196.504 112.418C195.781 112.027 194.902 111.832 193.867 111.832C192.793 111.832 191.904 112.066 191.201 112.535C190.518 113.004 189.98 113.648 189.59 114.469C189.219 115.27 188.955 116.197 188.799 117.252C188.643 118.307 188.564 119.42 188.564 120.592V121.705C188.564 122.877 188.721 123.941 189.033 124.898C189.365 125.855 189.834 126.676 190.439 127.359C191.064 128.023 191.807 128.541 192.666 128.912C193.545 129.283 194.541 129.469 195.654 129.469C197.002 129.469 198.33 129.215 199.639 128.707C200.947 128.199 202.07 127.359 203.008 126.188L207.49 131.52C206.846 132.438 205.928 133.326 204.736 134.186C203.564 135.045 202.158 135.748 200.518 136.295C198.877 136.822 197.041 137.086 195.01 137.086ZM227.383 91.5H237.256V128.707L236.23 136.5H227.383V91.5ZM256.709 120.299V120.914C256.709 123.316 256.465 125.504 255.977 127.477C255.488 129.449 254.736 131.158 253.721 132.604C252.705 134.029 251.426 135.133 249.883 135.914C248.34 136.695 246.514 137.086 244.404 137.086C242.49 137.086 240.85 136.676 239.482 135.855C238.115 135.016 236.973 133.863 236.055 132.398C235.137 130.914 234.395 129.205 233.828 127.271C233.262 125.318 232.812 123.229 232.48 121.002V120.27C232.812 118.062 233.262 115.992 233.828 114.059C234.395 112.105 235.137 110.396 236.055 108.932C236.973 107.447 238.105 106.295 239.453 105.475C240.82 104.635 242.451 104.215 244.346 104.215C246.475 104.215 248.311 104.615 249.854 105.416C251.416 106.217 252.705 107.34 253.721 108.785C254.736 110.23 255.488 111.93 255.977 113.883C256.465 115.836 256.709 117.975 256.709 120.299ZM246.836 120.914V120.299C246.836 119.146 246.768 118.062 246.631 117.047C246.494 116.031 246.25 115.133 245.898 114.352C245.547 113.57 245.049 112.955 244.404 112.506C243.76 112.057 242.92 111.832 241.885 111.832C240.83 111.832 239.941 112.008 239.219 112.359C238.516 112.711 237.949 113.219 237.52 113.883C237.109 114.527 236.816 115.328 236.641 116.285C236.465 117.223 236.387 118.287 236.406 119.479V121.793C236.367 123.414 236.514 124.801 236.846 125.953C237.178 127.105 237.754 127.984 238.574 128.59C239.395 129.195 240.518 129.498 241.943 129.498C242.998 129.498 243.848 129.293 244.492 128.883C245.156 128.473 245.654 127.887 245.986 127.125C246.318 126.363 246.543 125.455 246.66 124.4C246.777 123.346 246.836 122.184 246.836 120.914ZM276.455 137.086C273.877 137.086 271.572 136.686 269.541 135.885C267.51 135.064 265.791 133.941 264.385 132.516C262.998 131.09 261.934 129.449 261.191 127.594C260.469 125.738 260.107 123.775 260.107 121.705V120.592C260.107 118.268 260.43 116.119 261.074 114.146C261.719 112.154 262.676 110.416 263.945 108.932C265.215 107.447 266.807 106.295 268.721 105.475C270.635 104.635 272.861 104.215 275.4 104.215C277.646 104.215 279.658 104.576 281.436 105.299C283.213 106.021 284.717 107.057 285.947 108.404C287.197 109.752 288.145 111.383 288.789 113.297C289.453 115.211 289.785 117.359 289.785 119.742V123.756H263.887V117.574H280.146V116.812C280.166 115.758 279.98 114.859 279.59 114.117C279.219 113.375 278.672 112.809 277.949 112.418C277.227 112.027 276.348 111.832 275.312 111.832C274.238 111.832 273.35 112.066 272.646 112.535C271.963 113.004 271.426 113.648 271.035 114.469C270.664 115.27 270.4 116.197 270.244 117.252C270.088 118.307 270.01 119.42 270.01 120.592V121.705C270.01 122.877 270.166 123.941 270.479 124.898C270.811 125.855 271.279 126.676 271.885 127.359C272.51 128.023 273.252 128.541 274.111 128.912C274.99 129.283 275.986 129.469 277.1 129.469C278.447 129.469 279.775 129.215 281.084 128.707C282.393 128.199 283.516 127.359 284.453 126.188L288.936 131.52C288.291 132.438 287.373 133.326 286.182 134.186C285.01 135.045 283.604 135.748 281.963 136.295C280.322 136.822 278.486 137.086 276.455 137.086ZM304.229 91.5V136.5H294.326V91.5H304.229ZM320.752 104.801V136.5H310.85V104.801H320.752ZM310.264 96.627C310.264 95.2207 310.771 94.0684 311.787 93.1699C312.803 92.2715 314.121 91.8223 315.742 91.8223C317.363 91.8223 318.682 92.2715 319.697 93.1699C320.713 94.0684 321.221 95.2207 321.221 96.627C321.221 98.0332 320.713 99.1855 319.697 100.084C318.682 100.982 317.363 101.432 315.742 101.432C314.121 101.432 312.803 100.982 311.787 100.084C310.771 99.1855 310.264 98.0332 310.264 96.627ZM342.197 137.086C339.619 137.086 337.314 136.686 335.283 135.885C333.252 135.064 331.533 133.941 330.127 132.516C328.74 131.09 327.676 129.449 326.934 127.594C326.211 125.738 325.85 123.775 325.85 121.705V120.592C325.85 118.268 326.172 116.119 326.816 114.146C327.461 112.154 328.418 110.416 329.688 108.932C330.957 107.447 332.549 106.295 334.463 105.475C336.377 104.635 338.604 104.215 341.143 104.215C343.389 104.215 345.4 104.576 347.178 105.299C348.955 106.021 350.459 107.057 351.689 108.404C352.939 109.752 353.887 111.383 354.531 113.297C355.195 115.211 355.527 117.359 355.527 119.742V123.756H329.629V117.574H345.889V116.812C345.908 115.758 345.723 114.859 345.332 114.117C344.961 113.375 344.414 112.809 343.691 112.418C342.969 112.027 342.09 111.832 341.055 111.832C339.98 111.832 339.092 112.066 338.389 112.535C337.705 113.004 337.168 113.648 336.777 114.469C336.406 115.27 336.143 116.197 335.986 117.252C335.83 118.307 335.752 119.42 335.752 120.592V121.705C335.752 122.877 335.908 123.941 336.221 124.898C336.553 125.855 337.021 126.676 337.627 127.359C338.252 128.023 338.994 128.541 339.854 128.912C340.732 129.283 341.729 129.469 342.842 129.469C344.189 129.469 345.518 129.215 346.826 128.707C348.135 128.199 349.258 127.359 350.195 126.188L354.678 131.52C354.033 132.438 353.115 133.326 351.924 134.186C350.752 135.045 349.346 135.748 347.705 136.295C346.064 136.822 344.229 137.086 342.197 137.086ZM370.557 129.732L376.797 104.801H387.197L376.826 136.5H370.674L370.557 129.732ZM366.865 104.801L373.018 129.732L372.959 136.5H366.777L356.436 104.801H366.865ZM405.068 137.086C402.49 137.086 400.186 136.686 398.154 135.885C396.123 135.064 394.404 133.941 392.998 132.516C391.611 131.09 390.547 129.449 389.805 127.594C389.082 125.738 388.721 123.775 388.721 121.705V120.592C388.721 118.268 389.043 116.119 389.688 114.146C390.332 112.154 391.289 110.416 392.559 108.932C393.828 107.447 395.42 106.295 397.334 105.475C399.248 104.635 401.475 104.215 404.014 104.215C406.26 104.215 408.271 104.576 410.049 105.299C411.826 106.021 413.33 107.057 414.561 108.404C415.811 109.752 416.758 111.383 417.402 113.297C418.066 115.211 418.398 117.359 418.398 119.742V123.756H392.5V117.574H408.76V116.812C408.779 115.758 408.594 114.859 408.203 114.117C407.832 113.375 407.285 112.809 406.562 112.418C405.84 112.027 404.961 111.832 403.926 111.832C402.852 111.832 401.963 112.066 401.26 112.535C400.576 113.004 400.039 113.648 399.648 114.469C399.277 115.27 399.014 116.197 398.857 117.252C398.701 118.307 398.623 119.42 398.623 120.592V121.705C398.623 122.877 398.779 123.941 399.092 124.898C399.424 125.855 399.893 126.676 400.498 127.359C401.123 128.023 401.865 128.541 402.725 128.912C403.604 129.283 404.6 129.469 405.713 129.469C407.061 129.469 408.389 129.215 409.697 128.707C411.006 128.199 412.129 127.359 413.066 126.188L417.549 131.52C416.904 132.438 415.986 133.326 414.795 134.186C413.623 135.045 412.217 135.748 410.576 136.295C408.936 136.822 407.1 137.086 405.068 137.086ZM454.053 104.801V111.656H434.951V104.801H454.053ZM438.965 96.9199H448.838V126.158C448.838 126.998 448.936 127.652 449.131 128.121C449.326 128.57 449.658 128.893 450.127 129.088C450.615 129.264 451.26 129.352 452.061 129.352C452.627 129.352 453.096 129.342 453.467 129.322C453.838 129.283 454.189 129.234 454.521 129.176V136.236C453.682 136.51 452.803 136.715 451.885 136.852C450.967 137.008 449.99 137.086 448.955 137.086C446.846 137.086 445.039 136.754 443.535 136.09C442.051 135.426 440.918 134.381 440.137 132.955C439.355 131.529 438.965 129.674 438.965 127.389V96.9199ZM467.646 91.5V136.5H457.773V91.5H467.646ZM466.475 119.566L464.16 119.625C464.16 117.398 464.434 115.348 464.98 113.473C465.527 111.598 466.309 109.967 467.324 108.58C468.34 107.193 469.561 106.119 470.986 105.357C472.412 104.596 473.994 104.215 475.732 104.215C477.295 104.215 478.721 104.439 480.01 104.889C481.318 105.338 482.441 106.061 483.379 107.057C484.336 108.053 485.068 109.352 485.576 110.953C486.104 112.555 486.367 114.508 486.367 116.812V136.5H476.436V116.754C476.436 115.465 476.25 114.469 475.879 113.766C475.527 113.043 475.02 112.545 474.355 112.271C473.691 111.979 472.881 111.832 471.924 111.832C470.771 111.832 469.834 112.027 469.111 112.418C468.389 112.809 467.832 113.355 467.441 114.059C467.07 114.742 466.816 115.553 466.68 116.49C466.543 117.428 466.475 118.453 466.475 119.566ZM508.311 128.531V115.465C508.311 114.566 508.184 113.795 507.93 113.15C507.676 112.506 507.275 112.008 506.729 111.656C506.182 111.285 505.449 111.1 504.531 111.1C503.789 111.1 503.154 111.227 502.627 111.48C502.1 111.734 501.699 112.115 501.426 112.623C501.152 113.131 501.016 113.775 501.016 114.557H491.143C491.143 113.092 491.465 111.734 492.109 110.484C492.773 109.215 493.711 108.111 494.922 107.174C496.152 106.236 497.617 105.514 499.316 105.006C501.035 104.479 502.949 104.215 505.059 104.215C507.578 104.215 509.824 104.635 511.797 105.475C513.789 106.314 515.361 107.574 516.514 109.254C517.666 110.914 518.242 113.004 518.242 115.523V128.502C518.242 130.572 518.359 132.145 518.594 133.219C518.828 134.273 519.16 135.201 519.59 136.002V136.5H509.688C509.219 135.523 508.867 134.332 508.633 132.926C508.418 131.5 508.311 130.035 508.311 128.531ZM509.512 117.135L509.57 122.408H505.205C504.287 122.408 503.506 122.535 502.861 122.789C502.236 123.043 501.729 123.395 501.338 123.844C500.967 124.273 500.693 124.762 500.518 125.309C500.361 125.855 500.283 126.432 500.283 127.037C500.283 127.623 500.42 128.15 500.693 128.619C500.986 129.068 501.377 129.42 501.865 129.674C502.354 129.928 502.9 130.055 503.506 130.055C504.6 130.055 505.527 129.85 506.289 129.439C507.07 129.01 507.666 128.492 508.076 127.887C508.486 127.281 508.691 126.715 508.691 126.188L510.859 130.23C510.469 131.012 510.02 131.803 509.512 132.604C509.023 133.404 508.408 134.146 507.666 134.83C506.943 135.494 506.055 136.041 505 136.471C503.945 136.881 502.666 137.086 501.162 137.086C499.209 137.086 497.412 136.686 495.771 135.885C494.15 135.084 492.852 133.971 491.875 132.545C490.898 131.1 490.41 129.439 490.41 127.564C490.41 125.924 490.703 124.459 491.289 123.17C491.895 121.881 492.803 120.787 494.014 119.889C495.225 118.99 496.768 118.307 498.643 117.838C500.518 117.369 502.725 117.135 505.264 117.135H509.512ZM540.42 104.801V111.656H521.318V104.801H540.42ZM525.332 96.9199H535.205V126.158C535.205 126.998 535.303 127.652 535.498 128.121C535.693 128.57 536.025 128.893 536.494 129.088C536.982 129.264 537.627 129.352 538.428 129.352C538.994 129.352 539.463 129.342 539.834 129.322C540.205 129.283 540.557 129.234 540.889 129.176V136.236C540.049 136.51 539.17 136.715 538.252 136.852C537.334 137.008 536.357 137.086 535.322 137.086C533.213 137.086 531.406 136.754 529.902 136.09C528.418 135.426 527.285 134.381 526.504 132.955C525.723 131.529 525.332 129.674 525.332 127.389V96.9199Z" fill="#0E1318"/>
<path d="M572.676 129.469C573.594 129.469 574.375 129.303 575.02 128.971C575.684 128.619 576.182 128.131 576.514 127.506C576.865 126.861 577.031 126.09 577.012 125.191H586.299C586.318 127.574 585.732 129.664 584.541 131.461C583.369 133.238 581.768 134.625 579.736 135.621C577.725 136.598 575.449 137.086 572.91 137.086C570.43 137.086 568.262 136.686 566.406 135.885C564.551 135.064 562.998 133.932 561.748 132.486C560.518 131.021 559.59 129.312 558.965 127.359C558.359 125.406 558.057 123.287 558.057 121.002V120.328C558.057 118.043 558.359 115.924 558.965 113.971C559.59 111.998 560.518 110.289 561.748 108.844C562.998 107.379 564.541 106.246 566.377 105.445C568.232 104.625 570.391 104.215 572.852 104.215C575.488 104.215 577.812 104.713 579.824 105.709C581.855 106.705 583.447 108.15 584.6 110.045C585.752 111.939 586.318 114.234 586.299 116.93H577.012C577.031 115.973 576.885 115.113 576.572 114.352C576.26 113.59 575.771 112.984 575.107 112.535C574.463 112.066 573.633 111.832 572.617 111.832C571.602 111.832 570.781 112.057 570.156 112.506C569.531 112.955 569.053 113.58 568.721 114.381C568.408 115.162 568.193 116.061 568.076 117.076C567.979 118.092 567.93 119.176 567.93 120.328V121.002C567.93 122.174 567.979 123.277 568.076 124.312C568.193 125.328 568.418 126.227 568.75 127.008C569.082 127.77 569.561 128.375 570.186 128.824C570.811 129.254 571.641 129.469 572.676 129.469ZM600.186 91.5V136.5H590.312V91.5H600.186ZM599.014 119.566L596.699 119.625C596.699 117.398 596.973 115.348 597.52 113.473C598.066 111.598 598.848 109.967 599.863 108.58C600.879 107.193 602.1 106.119 603.525 105.357C604.951 104.596 606.533 104.215 608.271 104.215C609.834 104.215 611.26 104.439 612.549 104.889C613.857 105.338 614.98 106.061 615.918 107.057C616.875 108.053 617.607 109.352 618.115 110.953C618.643 112.555 618.906 114.508 618.906 116.812V136.5H608.975V116.754C608.975 115.465 608.789 114.469 608.418 113.766C608.066 113.043 607.559 112.545 606.895 112.271C606.23 111.979 605.42 111.832 604.463 111.832C603.311 111.832 602.373 112.027 601.65 112.418C600.928 112.809 600.371 113.355 599.98 114.059C599.609 114.742 599.355 115.553 599.219 116.49C599.082 117.428 599.014 118.453 599.014 119.566ZM640.85 128.531V115.465C640.85 114.566 640.723 113.795 640.469 113.15C640.215 112.506 639.814 112.008 639.268 111.656C638.721 111.285 637.988 111.1 637.07 111.1C636.328 111.1 635.693 111.227 635.166 111.48C634.639 111.734 634.238 112.115 633.965 112.623C633.691 113.131 633.555 113.775 633.555 114.557H623.682C623.682 113.092 624.004 111.734 624.648 110.484C625.312 109.215 626.25 108.111 627.461 107.174C628.691 106.236 630.156 105.514 631.855 105.006C633.574 104.479 635.488 104.215 637.598 104.215C640.117 104.215 642.363 104.635 644.336 105.475C646.328 106.314 647.9 107.574 649.053 109.254C650.205 110.914 650.781 113.004 650.781 115.523V128.502C650.781 130.572 650.898 132.145 651.133 133.219C651.367 134.273 651.699 135.201 652.129 136.002V136.5H642.227C641.758 135.523 641.406 134.332 641.172 132.926C640.957 131.5 640.85 130.035 640.85 128.531ZM642.051 117.135L642.109 122.408H637.744C636.826 122.408 636.045 122.535 635.4 122.789C634.775 123.043 634.268 123.395 633.877 123.844C633.506 124.273 633.232 124.762 633.057 125.309C632.9 125.855 632.822 126.432 632.822 127.037C632.822 127.623 632.959 128.15 633.232 128.619C633.525 129.068 633.916 129.42 634.404 129.674C634.893 129.928 635.439 130.055 636.045 130.055C637.139 130.055 638.066 129.85 638.828 129.439C639.609 129.01 640.205 128.492 640.615 127.887C641.025 127.281 641.23 126.715 641.23 126.188L643.398 130.23C643.008 131.012 642.559 131.803 642.051 132.604C641.562 133.404 640.947 134.146 640.205 134.83C639.482 135.494 638.594 136.041 637.539 136.471C636.484 136.881 635.205 137.086 633.701 137.086C631.748 137.086 629.951 136.686 628.311 135.885C626.689 135.084 625.391 133.971 624.414 132.545C623.438 131.1 622.949 129.439 622.949 127.564C622.949 125.924 623.242 124.459 623.828 123.17C624.434 121.881 625.342 120.787 626.553 119.889C627.764 118.99 629.307 118.307 631.182 117.838C633.057 117.369 635.264 117.135 637.803 117.135H642.051ZM665.957 111.568V136.5H656.084V104.801H665.342L665.957 111.568ZM664.785 119.566L662.471 119.625C662.471 117.203 662.764 115.045 663.35 113.15C663.936 111.236 664.766 109.615 665.84 108.287C666.914 106.959 668.193 105.953 669.678 105.27C671.182 104.566 672.852 104.215 674.688 104.215C676.152 104.215 677.49 104.43 678.701 104.859C679.932 105.289 680.986 105.982 681.865 106.939C682.764 107.896 683.447 109.166 683.916 110.748C684.404 112.311 684.648 114.244 684.648 116.549V136.5H674.717V116.52C674.717 115.25 674.541 114.283 674.189 113.619C673.838 112.936 673.33 112.467 672.666 112.213C672.002 111.959 671.191 111.832 670.234 111.832C669.219 111.832 668.359 112.027 667.656 112.418C666.953 112.809 666.387 113.355 665.957 114.059C665.547 114.742 665.244 115.553 665.049 116.49C664.873 117.428 664.785 118.453 664.785 119.566ZM710.049 104.801H719.014V135.27C719.014 138.199 718.34 140.68 716.992 142.711C715.645 144.762 713.76 146.314 711.338 147.369C708.936 148.443 706.123 148.98 702.9 148.98C701.475 148.98 700.02 148.795 698.535 148.424C697.051 148.072 695.664 147.545 694.375 146.842C693.086 146.139 692.002 145.27 691.123 144.234L695.254 138.434C696.055 139.332 697.061 140.094 698.271 140.719C699.482 141.363 700.908 141.686 702.549 141.686C703.975 141.686 705.166 141.432 706.123 140.924C707.1 140.416 707.842 139.674 708.35 138.697C708.857 137.74 709.111 136.578 709.111 135.211V112.301L710.049 104.801ZM688.984 121.031V120.416C688.984 118.014 689.277 115.826 689.863 113.854C690.469 111.861 691.328 110.152 692.441 108.727C693.574 107.281 694.941 106.168 696.543 105.387C698.145 104.605 699.951 104.215 701.963 104.215C704.131 104.215 705.908 104.635 707.295 105.475C708.701 106.295 709.824 107.447 710.664 108.932C711.523 110.416 712.188 112.154 712.656 114.146C713.145 116.119 713.555 118.248 713.887 120.533V121.266C713.555 123.414 713.096 125.445 712.51 127.359C711.943 129.254 711.201 130.934 710.283 132.398C709.365 133.863 708.213 135.016 706.826 135.855C705.459 136.676 703.818 137.086 701.904 137.086C699.912 137.086 698.115 136.686 696.514 135.885C694.932 135.084 693.574 133.961 692.441 132.516C691.328 131.07 690.469 129.371 689.863 127.418C689.277 125.465 688.984 123.336 688.984 121.031ZM698.857 120.416V121.031C698.857 122.223 698.965 123.326 699.18 124.342C699.414 125.357 699.766 126.256 700.234 127.037C700.703 127.799 701.279 128.395 701.963 128.824C702.666 129.254 703.486 129.469 704.424 129.469C705.85 129.469 707.002 129.166 707.881 128.561C708.76 127.955 709.395 127.096 709.785 125.982C710.176 124.869 710.342 123.561 710.283 122.057V119.742C710.322 118.453 710.234 117.32 710.02 116.344C709.805 115.348 709.463 114.518 708.994 113.854C708.545 113.189 707.939 112.691 707.178 112.359C706.436 112.008 705.537 111.832 704.482 111.832C703.564 111.832 702.754 112.047 702.051 112.477C701.348 112.906 700.762 113.512 700.293 114.293C699.824 115.055 699.463 115.963 699.209 117.018C698.975 118.053 698.857 119.186 698.857 120.416ZM740.049 137.086C737.471 137.086 735.166 136.686 733.135 135.885C731.104 135.064 729.385 133.941 727.979 132.516C726.592 131.09 725.527 129.449 724.785 127.594C724.062 125.738 723.701 123.775 723.701 121.705V120.592C723.701 118.268 724.023 116.119 724.668 114.146C725.312 112.154 726.27 110.416 727.539 108.932C728.809 107.447 730.4 106.295 732.314 105.475C734.229 104.635 736.455 104.215 738.994 104.215C741.24 104.215 743.252 104.576 745.029 105.299C746.807 106.021 748.311 107.057 749.541 108.404C750.791 109.752 751.738 111.383 752.383 113.297C753.047 115.211 753.379 117.359 753.379 119.742V123.756H727.48V117.574H743.74V116.812C743.76 115.758 743.574 114.859 743.184 114.117C742.812 113.375 742.266 112.809 741.543 112.418C740.82 112.027 739.941 111.832 738.906 111.832C737.832 111.832 736.943 112.066 736.24 112.535C735.557 113.004 735.02 113.648 734.629 114.469C734.258 115.27 733.994 116.197 733.838 117.252C733.682 118.307 733.604 119.42 733.604 120.592V121.705C733.604 122.877 733.76 123.941 734.072 124.898C734.404 125.855 734.873 126.676 735.479 127.359C736.104 128.023 736.846 128.541 737.705 128.912C738.584 129.283 739.58 129.469 740.693 129.469C742.041 129.469 743.369 129.215 744.678 128.707C745.986 128.199 747.109 127.359 748.047 126.188L752.529 131.52C751.885 132.438 750.967 133.326 749.775 134.186C748.604 135.045 747.197 135.748 745.557 136.295C743.916 136.822 742.08 137.086 740.049 137.086ZM113.213 184.801V216.5H103.311V184.801H113.213ZM102.725 176.627C102.725 175.221 103.232 174.068 104.248 173.17C105.264 172.271 106.582 171.822 108.203 171.822C109.824 171.822 111.143 172.271 112.158 173.17C113.174 174.068 113.682 175.221 113.682 176.627C113.682 178.033 113.174 179.186 112.158 180.084C111.143 180.982 109.824 181.432 108.203 181.432C106.582 181.432 105.264 180.982 104.248 180.084C103.232 179.186 102.725 178.033 102.725 176.627ZM135.918 207.594C135.918 207.047 135.732 206.578 135.361 206.188C135.01 205.777 134.385 205.406 133.486 205.074C132.588 204.723 131.328 204.371 129.707 204.02C128.164 203.688 126.709 203.248 125.342 202.701C123.994 202.154 122.812 201.49 121.797 200.709C120.781 199.928 119.98 199 119.395 197.926C118.828 196.852 118.545 195.621 118.545 194.234C118.545 192.887 118.828 191.617 119.395 190.426C119.98 189.215 120.83 188.15 121.943 187.232C123.076 186.295 124.453 185.562 126.074 185.035C127.695 184.488 129.541 184.215 131.611 184.215C134.463 184.215 136.924 184.654 138.994 185.533C141.064 186.393 142.656 187.604 143.77 189.166C144.902 190.709 145.469 192.496 145.469 194.527H135.596C135.596 193.727 135.459 193.043 135.186 192.477C134.932 191.91 134.512 191.48 133.926 191.188C133.34 190.875 132.559 190.719 131.582 190.719C130.898 190.719 130.273 190.846 129.707 191.1C129.16 191.354 128.721 191.705 128.389 192.154C128.057 192.604 127.891 193.131 127.891 193.736C127.891 194.166 127.988 194.557 128.184 194.908C128.398 195.24 128.721 195.553 129.15 195.846C129.58 196.119 130.127 196.373 130.791 196.607C131.455 196.822 132.256 197.018 133.193 197.193C135.322 197.584 137.314 198.141 139.17 198.863C141.025 199.586 142.529 200.611 143.682 201.939C144.854 203.268 145.439 205.055 145.439 207.301C145.439 208.707 145.117 210.006 144.473 211.197C143.828 212.369 142.9 213.404 141.689 214.303C140.479 215.182 139.023 215.865 137.324 216.354C135.625 216.842 133.711 217.086 131.582 217.086C128.555 217.086 125.996 216.549 123.906 215.475C121.816 214.381 120.234 213.014 119.16 211.373C118.105 209.713 117.578 208.033 117.578 206.334H126.777C126.816 207.311 127.051 208.111 127.48 208.736C127.93 209.361 128.525 209.82 129.268 210.113C130.01 210.406 130.869 210.553 131.846 210.553C132.744 210.553 133.486 210.426 134.072 210.172C134.678 209.918 135.137 209.576 135.449 209.146C135.762 208.697 135.918 208.18 135.918 207.594ZM181.709 184.801V191.656H162.607V184.801H181.709ZM166.621 176.92H176.494V206.158C176.494 206.998 176.592 207.652 176.787 208.121C176.982 208.57 177.314 208.893 177.783 209.088C178.271 209.264 178.916 209.352 179.717 209.352C180.283 209.352 180.752 209.342 181.123 209.322C181.494 209.283 181.846 209.234 182.178 209.176V216.236C181.338 216.51 180.459 216.715 179.541 216.852C178.623 217.008 177.646 217.086 176.611 217.086C174.502 217.086 172.695 216.754 171.191 216.09C169.707 215.426 168.574 214.381 167.793 212.955C167.012 211.529 166.621 209.674 166.621 207.389V176.92ZM195.303 171.5V216.5H185.43V171.5H195.303ZM194.131 199.566L191.816 199.625C191.816 197.398 192.09 195.348 192.637 193.473C193.184 191.598 193.965 189.967 194.98 188.58C195.996 187.193 197.217 186.119 198.643 185.357C200.068 184.596 201.65 184.215 203.389 184.215C204.951 184.215 206.377 184.439 207.666 184.889C208.975 185.338 210.098 186.061 211.035 187.057C211.992 188.053 212.725 189.352 213.232 190.953C213.76 192.555 214.023 194.508 214.023 196.812V216.5H204.092V196.754C204.092 195.465 203.906 194.469 203.535 193.766C203.184 193.043 202.676 192.545 202.012 192.271C201.348 191.979 200.537 191.832 199.58 191.832C198.428 191.832 197.49 192.027 196.768 192.418C196.045 192.809 195.488 193.355 195.098 194.059C194.727 194.742 194.473 195.553 194.336 196.49C194.199 197.428 194.131 198.453 194.131 199.566ZM234.854 217.086C232.275 217.086 229.971 216.686 227.939 215.885C225.908 215.064 224.189 213.941 222.783 212.516C221.396 211.09 220.332 209.449 219.59 207.594C218.867 205.738 218.506 203.775 218.506 201.705V200.592C218.506 198.268 218.828 196.119 219.473 194.146C220.117 192.154 221.074 190.416 222.344 188.932C223.613 187.447 225.205 186.295 227.119 185.475C229.033 184.635 231.26 184.215 233.799 184.215C236.045 184.215 238.057 184.576 239.834 185.299C241.611 186.021 243.115 187.057 244.346 188.404C245.596 189.752 246.543 191.383 247.188 193.297C247.852 195.211 248.184 197.359 248.184 199.742V203.756H222.285V197.574H238.545V196.812C238.564 195.758 238.379 194.859 237.988 194.117C237.617 193.375 237.07 192.809 236.348 192.418C235.625 192.027 234.746 191.832 233.711 191.832C232.637 191.832 231.748 192.066 231.045 192.535C230.361 193.004 229.824 193.648 229.434 194.469C229.062 195.27 228.799 196.197 228.643 197.252C228.486 198.307 228.408 199.42 228.408 200.592V201.705C228.408 202.877 228.564 203.941 228.877 204.898C229.209 205.855 229.678 206.676 230.283 207.359C230.908 208.023 231.65 208.541 232.51 208.912C233.389 209.283 234.385 209.469 235.498 209.469C236.846 209.469 238.174 209.215 239.482 208.707C240.791 208.199 241.914 207.359 242.852 206.188L247.334 211.52C246.689 212.438 245.771 213.326 244.58 214.186C243.408 215.045 242.002 215.748 240.361 216.295C238.721 216.822 236.885 217.086 234.854 217.086ZM265.908 200.973V200.357C265.908 198.033 266.24 195.895 266.904 193.941C267.568 191.969 268.545 190.26 269.834 188.814C271.123 187.369 272.715 186.246 274.609 185.445C276.504 184.625 278.691 184.215 281.172 184.215C283.672 184.215 285.869 184.625 287.764 185.445C289.678 186.246 291.279 187.369 292.568 188.814C293.857 190.26 294.834 191.969 295.498 193.941C296.162 195.895 296.494 198.033 296.494 200.357V200.973C296.494 203.277 296.162 205.416 295.498 207.389C294.834 209.342 293.857 211.051 292.568 212.516C291.279 213.961 289.688 215.084 287.793 215.885C285.898 216.686 283.711 217.086 281.23 217.086C278.75 217.086 276.553 216.686 274.639 215.885C272.725 215.084 271.123 213.961 269.834 212.516C268.545 211.051 267.568 209.342 266.904 207.389C266.24 205.416 265.908 203.277 265.908 200.973ZM275.781 200.357V200.973C275.781 202.164 275.869 203.277 276.045 204.312C276.221 205.348 276.514 206.256 276.924 207.037C277.334 207.799 277.891 208.395 278.594 208.824C279.297 209.254 280.176 209.469 281.23 209.469C282.266 209.469 283.125 209.254 283.809 208.824C284.512 208.395 285.068 207.799 285.479 207.037C285.889 206.256 286.182 205.348 286.357 204.312C286.533 203.277 286.621 202.164 286.621 200.973V200.357C286.621 199.205 286.533 198.121 286.357 197.105C286.182 196.07 285.889 195.162 285.479 194.381C285.068 193.58 284.512 192.955 283.809 192.506C283.105 192.057 282.227 191.832 281.172 191.832C280.137 191.832 279.268 192.057 278.564 192.506C277.881 192.955 277.334 193.58 276.924 194.381C276.514 195.162 276.221 196.07 276.045 197.105C275.869 198.121 275.781 199.205 275.781 200.357ZM310.586 191.568V216.5H300.713V184.801H309.971L310.586 191.568ZM309.414 199.566L307.1 199.625C307.1 197.203 307.393 195.045 307.979 193.15C308.564 191.236 309.395 189.615 310.469 188.287C311.543 186.959 312.822 185.953 314.307 185.27C315.811 184.566 317.48 184.215 319.316 184.215C320.781 184.215 322.119 184.43 323.33 184.859C324.561 185.289 325.615 185.982 326.494 186.939C327.393 187.896 328.076 189.166 328.545 190.748C329.033 192.311 329.277 194.244 329.277 196.549V216.5H319.346V196.52C319.346 195.25 319.17 194.283 318.818 193.619C318.467 192.936 317.959 192.467 317.295 192.213C316.631 191.959 315.82 191.832 314.863 191.832C313.848 191.832 312.988 192.027 312.285 192.418C311.582 192.809 311.016 193.355 310.586 194.059C310.176 194.742 309.873 195.553 309.678 196.49C309.502 197.428 309.414 198.453 309.414 199.566ZM345.186 171.5V216.5H335.283V171.5H345.186ZM361.006 212.779L369.209 184.801H379.814L367.07 221.217C366.797 222.018 366.436 222.877 365.986 223.795C365.537 224.732 364.922 225.621 364.141 226.461C363.359 227.301 362.354 227.984 361.123 228.512C359.912 229.039 358.408 229.303 356.611 229.303C355.654 229.303 354.951 229.254 354.502 229.156C354.072 229.078 353.408 228.932 352.51 228.717V221.656C352.764 221.656 352.979 221.656 353.154 221.656C353.35 221.656 353.564 221.656 353.799 221.656C354.854 221.656 355.693 221.549 356.318 221.334C356.963 221.119 357.451 220.807 357.783 220.396C358.135 219.986 358.408 219.488 358.604 218.902L361.006 212.779ZM358.926 184.801L365.166 206.979L366.25 217.438H359.629L348.35 184.801H358.926ZM410.723 209.469C411.641 209.469 412.422 209.303 413.066 208.971C413.73 208.619 414.229 208.131 414.561 207.506C414.912 206.861 415.078 206.09 415.059 205.191H424.346C424.365 207.574 423.779 209.664 422.588 211.461C421.416 213.238 419.814 214.625 417.783 215.621C415.771 216.598 413.496 217.086 410.957 217.086C408.477 217.086 406.309 216.686 404.453 215.885C402.598 215.064 401.045 213.932 399.795 212.486C398.564 211.021 397.637 209.312 397.012 207.359C396.406 205.406 396.104 203.287 396.104 201.002V200.328C396.104 198.043 396.406 195.924 397.012 193.971C397.637 191.998 398.564 190.289 399.795 188.844C401.045 187.379 402.588 186.246 404.424 185.445C406.279 184.625 408.438 184.215 410.898 184.215C413.535 184.215 415.859 184.713 417.871 185.709C419.902 186.705 421.494 188.15 422.646 190.045C423.799 191.939 424.365 194.234 424.346 196.93H415.059C415.078 195.973 414.932 195.113 414.619 194.352C414.307 193.59 413.818 192.984 413.154 192.535C412.51 192.066 411.68 191.832 410.664 191.832C409.648 191.832 408.828 192.057 408.203 192.506C407.578 192.955 407.1 193.58 406.768 194.381C406.455 195.162 406.24 196.061 406.123 197.076C406.025 198.092 405.977 199.176 405.977 200.328V201.002C405.977 202.174 406.025 203.277 406.123 204.312C406.24 205.328 406.465 206.227 406.797 207.008C407.129 207.77 407.607 208.375 408.232 208.824C408.857 209.254 409.688 209.469 410.723 209.469ZM427.334 200.973V200.357C427.334 198.033 427.666 195.895 428.33 193.941C428.994 191.969 429.971 190.26 431.26 188.814C432.549 187.369 434.141 186.246 436.035 185.445C437.93 184.625 440.117 184.215 442.598 184.215C445.098 184.215 447.295 184.625 449.189 185.445C451.104 186.246 452.705 187.369 453.994 188.814C455.283 190.26 456.26 191.969 456.924 193.941C457.588 195.895 457.92 198.033 457.92 200.357V200.973C457.92 203.277 457.588 205.416 456.924 207.389C456.26 209.342 455.283 211.051 453.994 212.516C452.705 213.961 451.113 215.084 449.219 215.885C447.324 216.686 445.137 217.086 442.656 217.086C440.176 217.086 437.979 216.686 436.064 215.885C434.15 215.084 432.549 213.961 431.26 212.516C429.971 211.051 428.994 209.342 428.33 207.389C427.666 205.416 427.334 203.277 427.334 200.973ZM437.207 200.357V200.973C437.207 202.164 437.295 203.277 437.471 204.312C437.646 205.348 437.939 206.256 438.35 207.037C438.76 207.799 439.316 208.395 440.02 208.824C440.723 209.254 441.602 209.469 442.656 209.469C443.691 209.469 444.551 209.254 445.234 208.824C445.938 208.395 446.494 207.799 446.904 207.037C447.314 206.256 447.607 205.348 447.783 204.312C447.959 203.277 448.047 202.164 448.047 200.973V200.357C448.047 199.205 447.959 198.121 447.783 197.105C447.607 196.07 447.314 195.162 446.904 194.381C446.494 193.58 445.938 192.955 445.234 192.506C444.531 192.057 443.652 191.832 442.598 191.832C441.562 191.832 440.693 192.057 439.99 192.506C439.307 192.955 438.76 193.58 438.35 194.381C437.939 195.162 437.646 196.07 437.471 197.105C437.295 198.121 437.207 199.205 437.207 200.357ZM472.012 191.568V216.5H462.139V184.801H471.396L472.012 191.568ZM470.84 199.566L468.525 199.625C468.525 197.203 468.818 195.045 469.404 193.15C469.99 191.236 470.82 189.615 471.895 188.287C472.969 186.959 474.248 185.953 475.732 185.27C477.236 184.566 478.906 184.215 480.742 184.215C482.207 184.215 483.545 184.43 484.756 184.859C485.986 185.289 487.041 185.982 487.92 186.939C488.818 187.896 489.502 189.166 489.971 190.748C490.459 192.311 490.703 194.244 490.703 196.549V216.5H480.771V196.52C480.771 195.25 480.596 194.283 480.244 193.619C479.893 192.936 479.385 192.467 478.721 192.213C478.057 191.959 477.246 191.832 476.289 191.832C475.273 191.832 474.414 192.027 473.711 192.418C473.008 192.809 472.441 193.355 472.012 194.059C471.602 194.742 471.299 195.553 471.104 196.49C470.928 197.428 470.84 198.453 470.84 199.566ZM512.793 207.594C512.793 207.047 512.607 206.578 512.236 206.188C511.885 205.777 511.26 205.406 510.361 205.074C509.463 204.723 508.203 204.371 506.582 204.02C505.039 203.688 503.584 203.248 502.217 202.701C500.869 202.154 499.688 201.49 498.672 200.709C497.656 199.928 496.855 199 496.27 197.926C495.703 196.852 495.42 195.621 495.42 194.234C495.42 192.887 495.703 191.617 496.27 190.426C496.855 189.215 497.705 188.15 498.818 187.232C499.951 186.295 501.328 185.562 502.949 185.035C504.57 184.488 506.416 184.215 508.486 184.215C511.338 184.215 513.799 184.654 515.869 185.533C517.939 186.393 519.531 187.604 520.645 189.166C521.777 190.709 522.344 192.496 522.344 194.527H512.471C512.471 193.727 512.334 193.043 512.061 192.477C511.807 191.91 511.387 191.48 510.801 191.188C510.215 190.875 509.434 190.719 508.457 190.719C507.773 190.719 507.148 190.846 506.582 191.1C506.035 191.354 505.596 191.705 505.264 192.154C504.932 192.604 504.766 193.131 504.766 193.736C504.766 194.166 504.863 194.557 505.059 194.908C505.273 195.24 505.596 195.553 506.025 195.846C506.455 196.119 507.002 196.373 507.666 196.607C508.33 196.822 509.131 197.018 510.068 197.193C512.197 197.584 514.189 198.141 516.045 198.863C517.9 199.586 519.404 200.611 520.557 201.939C521.729 203.268 522.314 205.055 522.314 207.301C522.314 208.707 521.992 210.006 521.348 211.197C520.703 212.369 519.775 213.404 518.564 214.303C517.354 215.182 515.898 215.865 514.199 216.354C512.5 216.842 510.586 217.086 508.457 217.086C505.43 217.086 502.871 216.549 500.781 215.475C498.691 214.381 497.109 213.014 496.035 211.373C494.98 209.713 494.453 208.033 494.453 206.334H503.652C503.691 207.311 503.926 208.111 504.355 208.736C504.805 209.361 505.4 209.82 506.143 210.113C506.885 210.406 507.744 210.553 508.721 210.553C509.619 210.553 510.361 210.426 510.947 210.172C511.553 209.918 512.012 209.576 512.324 209.146C512.637 208.697 512.793 208.18 512.793 207.594ZM543.643 184.801V191.656H524.541V184.801H543.643ZM528.555 176.92H538.428V206.158C538.428 206.998 538.525 207.652 538.721 208.121C538.916 208.57 539.248 208.893 539.717 209.088C540.205 209.264 540.85 209.352 541.65 209.352C542.217 209.352 542.686 209.342 543.057 209.322C543.428 209.283 543.779 209.234 544.111 209.176V216.236C543.271 216.51 542.393 216.715 541.475 216.852C540.557 217.008 539.58 217.086 538.545 217.086C536.436 217.086 534.629 216.754 533.125 216.09C531.641 215.426 530.508 214.381 529.727 212.955C528.945 211.529 528.555 209.674 528.555 207.389V176.92ZM564.033 208.531V195.465C564.033 194.566 563.906 193.795 563.652 193.15C563.398 192.506 562.998 192.008 562.451 191.656C561.904 191.285 561.172 191.1 560.254 191.1C559.512 191.1 558.877 191.227 558.35 191.48C557.822 191.734 557.422 192.115 557.148 192.623C556.875 193.131 556.738 193.775 556.738 194.557H546.865C546.865 193.092 547.188 191.734 547.832 190.484C548.496 189.215 549.434 188.111 550.645 187.174C551.875 186.236 553.34 185.514 555.039 185.006C556.758 184.479 558.672 184.215 560.781 184.215C563.301 184.215 565.547 184.635 567.52 185.475C569.512 186.314 571.084 187.574 572.236 189.254C573.389 190.914 573.965 193.004 573.965 195.523V208.502C573.965 210.572 574.082 212.145 574.316 213.219C574.551 214.273 574.883 215.201 575.312 216.002V216.5H565.41C564.941 215.523 564.59 214.332 564.355 212.926C564.141 211.5 564.033 210.035 564.033 208.531ZM565.234 197.135L565.293 202.408H560.928C560.01 202.408 559.229 202.535 558.584 202.789C557.959 203.043 557.451 203.395 557.061 203.844C556.689 204.273 556.416 204.762 556.24 205.309C556.084 205.855 556.006 206.432 556.006 207.037C556.006 207.623 556.143 208.15 556.416 208.619C556.709 209.068 557.1 209.42 557.588 209.674C558.076 209.928 558.623 210.055 559.229 210.055C560.322 210.055 561.25 209.85 562.012 209.439C562.793 209.01 563.389 208.492 563.799 207.887C564.209 207.281 564.414 206.715 564.414 206.188L566.582 210.23C566.191 211.012 565.742 211.803 565.234 212.604C564.746 213.404 564.131 214.146 563.389 214.83C562.666 215.494 561.777 216.041 560.723 216.471C559.668 216.881 558.389 217.086 556.885 217.086C554.932 217.086 553.135 216.686 551.494 215.885C549.873 215.084 548.574 213.971 547.598 212.545C546.621 211.1 546.133 209.439 546.133 207.564C546.133 205.924 546.426 204.459 547.012 203.17C547.617 201.881 548.525 200.787 549.736 199.889C550.947 198.99 552.49 198.307 554.365 197.838C556.24 197.369 558.447 197.135 560.986 197.135H565.234ZM589.141 191.568V216.5H579.268V184.801H588.525L589.141 191.568ZM587.969 199.566L585.654 199.625C585.654 197.203 585.947 195.045 586.533 193.15C587.119 191.236 587.949 189.615 589.023 188.287C590.098 186.959 591.377 185.953 592.861 185.27C594.365 184.566 596.035 184.215 597.871 184.215C599.336 184.215 600.674 184.43 601.885 184.859C603.115 185.289 604.17 185.982 605.049 186.939C605.947 187.896 606.631 189.166 607.1 190.748C607.588 192.311 607.832 194.244 607.832 196.549V216.5H597.9V196.52C597.9 195.25 597.725 194.283 597.373 193.619C597.021 192.936 596.514 192.467 595.85 192.213C595.186 191.959 594.375 191.832 593.418 191.832C592.402 191.832 591.543 192.027 590.84 192.418C590.137 192.809 589.57 193.355 589.141 194.059C588.73 194.742 588.428 195.553 588.232 196.49C588.057 197.428 587.969 198.453 587.969 199.566ZM630.01 184.801V191.656H610.908V184.801H630.01ZM614.922 176.92H624.795V206.158C624.795 206.998 624.893 207.652 625.088 208.121C625.283 208.57 625.615 208.893 626.084 209.088C626.572 209.264 627.217 209.352 628.018 209.352C628.584 209.352 629.053 209.342 629.424 209.322C629.795 209.283 630.146 209.234 630.479 209.176V216.236C629.639 216.51 628.76 216.715 627.842 216.852C626.924 217.008 625.947 217.086 624.912 217.086C622.803 217.086 620.996 216.754 619.492 216.09C618.008 215.426 616.875 214.381 616.094 212.955C615.312 211.529 614.922 209.674 614.922 207.389V176.92ZM643.193 171.5V176.305C643.193 177.613 642.93 178.951 642.402 180.318C641.895 181.686 641.23 182.975 640.41 184.186C639.609 185.377 638.75 186.383 637.832 187.203L633.496 184.859C634.121 183.746 634.688 182.516 635.195 181.168C635.723 179.801 635.986 178.17 635.986 176.275V171.5H643.193ZM653.799 171.5V176.305C653.799 177.613 653.535 178.951 653.008 180.318C652.5 181.686 651.836 182.975 651.016 184.186C650.215 185.377 649.355 186.383 648.438 187.203L644.102 184.859C644.727 183.746 645.293 182.516 645.801 181.168C646.328 179.801 646.592 178.17 646.592 176.275V171.5H653.799Z" fill="#0071BB"/>
<defs>
<filter id="filter0_dd_1415_123" x="0" y="0" width="855" height="319" filterUnits="userSpaceOnUse" color-interpolation-filters="sRGB">
<feFlood flood-opacity="0" result="BackgroundImageFix"/>
<feColorMatrix in="SourceAlpha" type="matrix" values="0 0 0 0 0 0 0 0 0 0 0 0 0 0 0 0 0 0 127 0" result="hardAlpha"/>
<feOffset/>
<feGaussianBlur stdDeviation="30"/>
<feColorMatrix type="matrix" values="0 0 0 0 0.321569 0 0 0 0 0.388235 0 0 0 0 0.439216 0 0 0 0.2 0"/>
<feBlend mode="normal" in2="BackgroundImageFix" result="effect1_dropShadow_1415_123"/>
<feColorMatrix in="SourceAlpha" type="matrix" values="0 0 0 0 0 0 0 0 0 0 0 0 0 0 0 0 0 0 127 0" result="hardAlpha"/>
<feOffset/>
<feGaussianBlur stdDeviation="12"/>
<feColorMatrix type="matrix" values="0 0 0 0 0.321569 0 0 0 0 0.388235 0 0 0 0 0.439216 0 0 0 0.15 0"/>
<feBlend mode="normal" in2="effect1_dropShadow_1415_123" result="effect2_dropShadow_1415_123"/>
<feBlend mode="normal" in="SourceGraphic" in2="effect2_dropShadow_1415_123" result="shape"/>
</filter>
</defs>
</svg>
